<?xml version="1.0" encoding="UTF-8" standalone="no"?>
<svg viewBox="0 0 48 48" xmlns="http://www.w3.org/2000/svg" xmlns:xlink="http://www.w3.org/1999/xlink">
<defs>
<filter height="1.2083" id="filter6421" width="1.28308" x="-.14154" y="-.10415">
<feGaussianBlur stdDeviation="2.07"/>
</filter>
<filter height="1.23906" id="filter6451" width="1.13363" x="-.06681" y="-.11953">
<feGaussianBlur stdDeviation=".76879"/>
</filter>
<linearGradient id="linearGradient6365">
<stop offset="0" stop-color="#fff"/>
<stop offset="1" stop-color="#fff" stop-opacity="0"/>
</linearGradient>
<linearGradient gradientUnits="userSpaceOnUse" id="linearGradient9864" x1="34.82501" x2="6.01041" y1="19.80412" y2="27.75907">
<stop offset="0" stop-color="#4e4e4e"/>
<stop offset="1" stop-color="#ababab"/>
</linearGradient>
<linearGradient gradientUnits="userSpaceOnUse" id="linearGradient9886" x1="18.71602" x2="20.87048" y1="19.10773" y2="24.76458">
<stop offset="0" stop-color="#525252"/>
<stop offset="1" stop-color="#525252" stop-opacity="0"/>
</linearGradient>
<linearGradient gradientUnits="userSpaceOnUse" id="linearGradient9902" x1="19.05814" x2="21.68984" y1="21.51119" y2="18.06404">
<stop offset="0" stop-color="#cecece"/>
<stop offset="1" stop-color="#9e9e9e"/>
</linearGradient>
<linearGradient gradientUnits="userSpaceOnUse" id="linearGradient6473" x2="0" y1="44" y2="29.06801">
<stop offset="0" stop-color="#babdb6"/>
<stop offset="1" stop-color="#babdb6" stop-opacity="0"/>
</linearGradient>
<linearGradient gradientUnits="userSpaceOnUse" id="linearGradient6371" x2="0" xlink:href="#linearGradient6365" y1="31.625" y2="43.25"/>
<linearGradient gradientUnits="userSpaceOnUse" id="linearGradient6465" x1="8.84771" x2="19.49924" xlink:href="#linearGradient6365" y1="13.97625" y2="42.83734"/>
<radialGradient cx="27.88388" cy="7.13961" gradientTransform="matrix(2.56582,0,0,1.40326,-49.80405,-9.4833)" gradientUnits="userSpaceOnUse" id="radialGradient9876" r="9.72272">
<stop offset="0" stop-color="#4e4e4e"/>
<stop offset="1" stop-color="#616161" stop-opacity="0"/>
</radialGradient>
<radialGradient cx="24.83713" cy="36.42113" gradientTransform="matrix(1,0,0,.53672,0,16.87306)" gradientUnits="userSpaceOnUse" id="radialGradient6461" r="15.64474">
<stop offset="0"/>
<stop offset="1" stop-opacity="0"/>
</radialGradient>
<radialGradient cx="19.70114" cy="2.89694" gradientTransform="matrix(1.25344,0,0,.9539,-15.47908,11.27663)" gradientUnits="userSpaceOnUse" id="radialGradient6463" r="17.17142" xlink:href="#linearGradient6365"/>
</defs>
<path d="m2.18801,2.56921h30.58134a.70711,.7071 0 0,1 .70711.7071v40.52782a.70711,.7071 0 0,1 -.70711.7071h-30.58134a.70711,.7071 0 0,1 -.70711-.7071v-40.52782a.70711,.7071 0 0,1 .70711-.7071" fill="#eeeeec" fill-rule="evenodd" stroke="#555753" stroke-miterlimit="10"/>
<path d="m1.97918,17.24085h31v26.75915h-31z" fill="url(#linearGradient6473)" fill-rule="evenodd"/>
<path d="m2.10418,43.875 21.375-8.875c0,0 3.51354-2.21958.25-3.5-3.415-1.33984-7,.5-7,.5l-14.625,11.875z" fill-rule="evenodd" filter="url(#filter6451)" opacity=".55429"/>
<path d="m2.01685,43.94486-.03883-40.89033 19.9423.04419 .04419,29.91946-19.94766,10.92668z" fill="url(#linearGradient9864)" fill-rule="evenodd"/>
<path d="m1.94899,43.94486 20.1481-10.88249-18.56155,8.92722v-38.97926h-1.57046l-.01609,40.93453z" display="block" fill="#fff" opacity=".42222"/>
<path d="m2.024,43.75736-.04481-40.70283h19.94113l-.17925,30.62656-19.71707,10.07627z" fill="url(#radialGradient9876)" fill-rule="evenodd"/>
<path d="m17.62221,18.4562 1.92245,2.45278-1.45841,4.81716c0,0 .26516,1.5026 1.03856.48614s2.97246-3.58205 2.58536-5.45798c-.28726-1.39212-1.08276-2.05503-1.08276-2.05503l-3.0052-.24307z" fill="url(#linearGradient9886)" fill-rule="evenodd"/>
<path d="m19.45627,17.35134c0,0 2.16327,1.00172 2.23181,1.87825 .10178,1.30172-4.24264,5.43588-4.24264,5.43588-.50823.61872-1.34792.06629-.88388-.53033 0,0 3.4666-4.11797 3.24827-4.44151-.27361-.40546-1.96664-1.03856-1.96664-1.03856-1.01647-.7513.26762-2.30546 1.61309-1.30373z" fill="url(#linearGradient9902)" fill-rule="evenodd"/>
<path d="m22.22919,3.5-.5,29.75-18,9.75 29.25.25-.25-39.75h-10.5z" fill="url(#linearGradient6371)" fill-rule="evenodd" filter="url(#filter6421)" opacity=".87429"/>
<g transform="matrix(-1,0,0,1,48.20137,-4.7335e-2)">
<path d="m40.48186,36.42113a15.64474,8.39689 0 1,1 -31.28947,0 15.64474,8.39689 0 1,1 31.28947,0z" fill="url(#radialGradient6461)" fill-rule="evenodd" opacity=".29947" transform="matrix(.77849,0,0,.77849,-7.57982,1.59814)"/>
<path d="m1.7318,17.59382v12.76155h7.93231v5.82078l12.22364-12.22364-12.2964-12.2964v5.94097l-7.85954-.00325z" fill="#c00" fill-rule="evenodd" stroke="#a40000" stroke-linecap="round" stroke-linejoin="round" stroke-miterlimit="10"/>
<path d="m9.92401,12.47804v5.63762h-7.84939v6.41578c10.25791-3.82758 9.88038,3.24255 19.21966-.58503l-11.37027-11.46837z" fill="url(#radialGradient6463)" fill-rule="evenodd" opacity=".50802"/>
<path d="m2.68344,18.56593v10.78993h7.90126v4.12561l9.54328-9.53957-9.60583-9.94469v4.57151l-7.83871-.00279z" fill="none" opacity=".48128" stroke="url(#linearGradient6465)" stroke-miterlimit="10"/>
</g>
</svg>
